# xmcd
#
# Track frame offsets:
#	150
#	13074
#	31445
#	47267
#	69135
#	87156
#	103540
#	116736
#	137477
#	152474
#	167138
#
# Disc length: 2465 seconds
# Revision: 0
# Processed by: cddbd v1.5.2PL0 Copyright (c) Steve Scherf et al.
# Submitted via: dBpowerAMP V12.0
#
DISCID=7c099f0b
DTITLE=Micke Bjorklof and Blue Strip - Ain't Bad Yet
DYEAR=2015
DGENRE=Blues
TTITLE0=Last Train To Memphis
TTITLE1=Troublemaker
TTITLE2=Rain In Jerusalem
TTITLE3=Get Ya In Da Mood
TTITLE4=Hold Your Fire Baby
TTITLE5=It Ain't Bad Yet
TTITLE6=Rat Chase
TTITLE7=Sweet Dream's A Sweet Dream
TTITLE8=Today
TTITLE9=Blame It On The Bright Lights
TTITLE10=In Chains
EXTD=
EXTT0=
EXTT1=
EXTT2=
EXTT3=
EXTT4=
EXTT5=
EXTT6=
EXTT7=
EXTT8=
EXTT9=
EXTT10=
PLAYORDER=
